<svg xmlns="http://www.w3.org/2000/svg" xmlns:xlink="http://www.w3.org/1999/xlink" width="1920" height="2241" viewBox="0 0 1920 2241">
  <defs>
    <clipPath id="clip-path">
      <rect id="Rectángulo_465" data-name="Rectángulo 465" width="1920" height="466" transform="translate(0 3695)" fill="#fff"/>
    </clipPath>
    <clipPath id="clip-path-2">
      <rect id="Rectángulo_467" data-name="Rectángulo 467" width="1920" height="1807" transform="translate(0 4161)" fill="#fff"/>
    </clipPath>
    <clipPath id="clip-Home_7">
      <rect width="1920" height="2241"/>
    </clipPath>
  </defs>
  <g id="Home_7" data-name="Home – 7" clip-path="url(#clip-Home_7)">
    <rect width="1920" height="2241" fill="#fff"/>
    <g id="Grupo_1023" data-name="Grupo 1023">
      <g id="Enmascarar_grupo_58" data-name="Enmascarar grupo 58" transform="translate(0 -3695)" clip-path="url(#clip-path)">
        <g id="Grupo_1021" data-name="Grupo 1021">
          <path id="Trazado_4089" data-name="Trazado 4089" d="M1958.279,0q1.259,943.6,2.518,1887.191L3.406,1975.95C4.216,1379.334-1.545,742.433-.734,145.817,651.215,113.37,1306.329,32.452,1958.279,0" transform="translate(-17.5 2026.901)" fill="#744a98"/>
          <path id="Trazado_4090" data-name="Trazado 4090" d="M10.974,155.155,1989.406-.407l-3.439,2278.623L10.974,2438.947Z" transform="translate(-41.406 3828.069)" fill="#009846"/>
          <path id="Trazado_4091" data-name="Trazado 4091" d="M10.974,155.155,1989.406-.407l-3.439,2278.623L10.974,2438.947Z" transform="translate(-41.406 6094.73)" fill="#93134a"/>
          <rect id="Rectángulo_464" data-name="Rectángulo 464" width="1960.797" height="1887.191" transform="translate(-17.5 2026.904)" fill="none"/>
        </g>
      </g>
      <g id="Enmascarar_grupo_59" data-name="Enmascarar grupo 59" transform="translate(0 -3711)" clip-path="url(#clip-path-2)">
        <g id="Grupo_1022" data-name="Grupo 1022">
          <path id="Trazado_4092" data-name="Trazado 4092" d="M1958.279,0q1.259,943.6,2.518,1887.191L3.406,1975.95C4.216,1379.334-1.545,742.433-.734,145.817,651.215,113.37,1306.329,32.452,1958.279,0" transform="translate(-17.5 2026.901)" fill="#744a98"/>
          <path id="Trazado_4093" data-name="Trazado 4093" d="M10.974,155.155,1989.406-.407l-3.439,2278.623L10.974,2438.947Z" transform="translate(-41.406 3828.069)" fill="#009846"/>
          <path id="Trazado_4094" data-name="Trazado 4094" d="M10.974,155.155,1989.406-.407l-3.439,2278.623L10.974,2438.947Z" transform="translate(-41.406 6094.73)" fill="#93134a"/>
          <rect id="Rectángulo_466" data-name="Rectángulo 466" width="1960.797" height="1887.191" transform="translate(-17.5 2026.904)" fill="none"/>
        </g>
      </g>
    </g>
  </g>
</svg>
